<svg xmlns="http://www.w3.org/2000/svg" version="1.0" viewBox="0 0 512.000000 512.000000" preserveAspectRatio="xMidYMid meet">
<g transform="translate(0.000000,512.000000) scale(0.100000,-0.100000)" fill="#000000" stroke="none">
<path d="M2625 3840 c66 -4 133 -8 148 -9 17 0 26 -5 22 -11 -4 -7 3 -8 22 -4 15 4 29 8 31 9 10 8 -165 25 -246 23 l-97 -2 120 -6z"/>
<path d="M2448 3833 c12 -2 30 -2 40 0 9 3 -1 5 -23 4 -22 0 -30 -2 -17 -4z"/>
<path d="M2388 3823 c6 -2 18 -2 25 0 6 3 1 5 -13 5 -14 0 -19 -2 -12 -5z"/>
<path d="M2583 3823 c9 -2 23 -2 30 0 6 3 -1 5 -18 5 -16 0 -22 -2 -12 -5z"/>
<path d="M2338 3813 c7 -3 16 -2 19 1 4 3 -2 6 -13 5 -11 0 -14 -3 -6 -6z"/>
<path d="M2860 3810 c0 -5 4 -10 9 -10 6 0 13 5 16 10 3 6 -1 10 -9 10 -9 0 -16 -4 -16 -10z"/>
<path d="M2903 3804 c3 -4 39 -17 79 -31 281 -93 507 -284 697 -591 34 -56 65 -102 67 -102 9 0 -50 107 -99 180 -145 217 -303 363 -502 462 -98 50 -267 106 -242 82z"/>
<path d="M1729 3763 c-13 -16 -12 -17 4 -4 9 7 17 15 17 17 0 8 -8 3 -21 -13z"/>
<path d="M1660 3714 c-68 -53 -205 -191 -256 -259 l-46 -60 48 55 c65 74 187 196 254 253 65 55 65 61 0 11z"/>
<path d="M2290 3690 c-338 -72 -631 -280 -788 -561 -43 -76 -97 -229 -118 -330 -19 -93 -15 -313 5 -359 11 -23 11 -22 6 10 -52 321 49 647 269 878 106 111 267 217 420 277 87 34 233 76 273 79 12 0 28 7 35 14 16 16 5 15 -102 -8z"/>
<path d="M2428 3553 c12 -2 30 -2 40 0 9 3 -1 5 -23 4 -22 0 -30 -2 -17 -4z"/>
<path d="M2673 3553 c9 -2 23 -2 30 0 6 3 -1 5 -18 5 -16 0 -22 -2 -12 -5z"/>
<path d="M2281 3535 c-35 -8 -105 -28 -155 -45 -305 -101 -520 -340 -602 -670 -26 -104 -26 -320 -1 -404 10 -32 20 -57 21 -55 2 2 -3 40 -11 84 -29 158 2 376 76 539 72 158 203 313 349 410 97 64 98 57 2 -15 -180 -136 -328 -359 -382 -575 -29 -119 -32 -316 -4 -422 23 -91 31 -89 11 4 -8 38 -15 122 -15 186 0 279 128 556 348 752 67 59 98 79 127 82 12 1 40 12 61 24 42 23 31 21 -28 -4 -54 -23 -47 -11 10 17 62 31 154 64 239 87 80 21 47 25 -46 5z"/>
<path d="M2748 3543 c7 -3 16 -2 19 1 4 3 -2 6 -13 5 -11 0 -14 -3 -6 -6z"/>
<path d="M2350 3520 c-87 -18 -205 -58 -197 -67 3 -2 21 2 40 10 66 28 222 58 342 66 l120 8 -110 1 c-71 0 -140 -6 -195 -18z"/>
<path d="M2798 3533 c7 -3 16 -2 19 1 4 3 -2 6 -13 5 -11 0 -14 -3 -6 -6z"/>
<path d="M2683 3523 c9 -2 25 -2 35 0 9 3 1 5 -18 5 -19 0 -27 -2 -17 -5z"/>
<path d="M2838 3523 c7 -3 16 -2 19 1 4 3 -2 6 -13 5 -11 0 -14 -3 -6 -6z"/>
<path d="M2946 3487 c153 -62 338 -210 440 -352 173 -241 226 -563 144 -880 -54 -209 -140 -363 -288 -517 -179 -186 -425 -309 -650 -325 -45 -3 -85 -10 -88 -15 -4 -6 27 -7 77 -3 274 22 475 113 665 300 56 55 120 129 144 164 164 246 240 622 180 893 -40 181 -135 359 -263 494 -24 26 -35 44 -28 48 19 12 12 22 -46 63 -72 51 -198 115 -280 142 -94 32 -98 25 -7 -12z"/>
<path d="M2405 3386 c-250 -49 -461 -198 -620 -436 -89 -134 -125 -262 -123 -430 l1 -105 7 110 c27 398 306 739 684 835 97 24 273 27 350 6 28 -8 83 -23 121 -32 131 -32 315 -140 449 -264 l70 -65 -42 52 c-120 146 -309 267 -487 313 -105 27 -312 35 -410 16z"/>
<path d="M1339 3373 c-13 -16 -12 -17 4 -4 9 7 17 15 17 17 0 8 -8 3 -21 -13z"/>
<path d="M1414 3298 l-19 -23 23 19 c21 18 27 26 19 26 -2 0 -12 -10 -23 -22z"/>
<path d="M2221 3140 c-102 -54 -173 -126 -222 -225 -104 -211 -88 -431 48 -637 113 -173 273 -257 484 -258 143 0 259 47 372 150 68 62 132 182 147 273 10 62 -1 183 -20 227 l-10 25 5 -26 c33 -173 -2 -314 -108 -435 -52 -59 -152 -129 -229 -161 -83 -34 -207 -42 -295 -20 -166 43 -305 160 -389 330 -45 93 -48 104 -52 192 -7 157 23 254 121 395 39 57 151 161 200 186 15 8 27 17 27 19 0 7 1 8 -79 -35z"/>
<path d="M2600 3150 c-55 -10 -149 -45 -176 -64 -10 -8 13 -3 51 11 86 31 225 42 317 23 73 -14 172 -57 224 -97 21 -16 35 -22 32 -13 -7 23 -108 87 -179 114 -74 27 -198 40 -269 26z"/>
<path d="M2990 3097 c3 -3 33 -26 68 -51 99 -73 215 -250 216 -332 1 -18 4 -30 7 -28 4 2 12 -45 19 -104 15 -139 4 -235 -44 -377 -4 -11 0 -7 9 8 54 93 69 285 36 455 -29 151 -113 295 -214 371 -46 34 -111 73 -97 58z"/>
<path d="M1217 3008 c-71 -150 -105 -286 -113 -453 -13 -239 52 -512 153 -644 40 -53 146 -160 156 -158 6 1 11 -5 12 -13 0 -8 5 -15 12 -15 6 0 22 -9 35 -20 126 -109 326 -231 477 -293 180 -72 312 -100 516 -109 149 -6 227 2 348 38 95 28 78 34 -24 8 -122 -30 -362 -37 -500 -14 -130 21 -316 81 -439 141 -263 127 -522 357 -610 540 -37 77 -77 239 -91 371 -13 119 -1 271 33 418 11 50 26 115 33 145 7 31 20 71 29 89 10 18 15 35 13 38 -3 2 -21 -28 -40 -69z m178 -1228 c10 -11 16 -20 13 -20 -3 0 -13 9 -23 20 -10 11 -16 20 -13 20 3 0 13 -9 23 -20z"/>
<path d="M3065 2991 c3 -5 24 -24 48 -42 l42 -32 -40 41 c-36 37 -65 56 -50 33z"/>
<path d="M2730 2940 c31 -17 75 -48 99 -70 54 -50 67 -52 20 -4 -39 40 -112 89 -149 98 -14 4 0 -7 30 -24z"/>
<path d="M2403 2835 c-87 -44 -132 -122 -132 -230 -1 -55 27 -145 44 -145 3 0 -1 12 -9 28 -33 65 -28 148 14 232 48 95 175 143 289 110 43 -12 28 3 -18 19 -58 19 -132 14 -188 -14z"/>
<path d="M3222 2795 c12 -24 23 -43 26 -41 4 5 -36 86 -43 86 -3 0 5 -20 17 -45z"/>
<path d="M2880 2816 c0 -2 8 -10 18 -17 15 -13 16 -12 3 4 -13 16 -21 21 -21 13z"/>
<path d="M2836 2707 c25 -75 16 -188 -21 -256 -83 -152 -261 -217 -406 -150 -104 49 -175 138 -199 252 l-9 42 4 -50 c7 -76 60 -172 120 -217 145 -110 307 -108 432 5 98 90 141 219 109 328 -8 30 -22 63 -30 74 -14 17 -13 14 0 -28z"/>
<path d="M1843 2625 c0 -33 2 -45 4 -27 2 18 2 45 0 60 -2 15 -4 0 -4 -33z"/>
<path d="M3162 2575 c0 -16 2 -22 5 -12 2 9 2 23 0 30 -3 6 -5 -1 -5 -18z"/>
<path d="M2745 2520 c-20 -44 -66 -90 -117 -116 -47 -24 -145 -30 -191 -11 -46 20 -48 13 -4 -13 65 -40 206 -17 269 44 20 19 43 56 52 82 20 60 15 67 -9 14z"/>
<path d="M1847 2534 c-11 -11 -8 -46 8 -102 9 -29 20 -50 25 -47 6 4 10 0 10 -8 0 -8 9 -22 20 -32 19 -17 18 -14 -4 36 -14 30 -31 78 -39 107 -7 29 -16 49 -20 46z"/>
<path d="M3984 2435 c0 -55 1 -76 3 -47 2 29 2 74 0 100 -2 26 -3 2 -3 -53z"/>
<path d="M3157 2424 c-14 -86 -75 -183 -181 -291 -56 -57 -98 -103 -93 -103 19 0 196 189 224 240 37 65 66 151 61 177 -2 10 -7 0 -11 -23z"/>
<path d="M2320 2446 c0 -2 8 -10 18 -17 15 -13 16 -12 3 4 -13 16 -21 21 -21 13z"/>
<path d="M1672 2385 c0 -16 2 -22 5 -12 2 9 2 23 0 30 -3 6 -5 -1 -5 -18z"/>
<path d="M1401 2384 c0 -11 3 -14 6 -6 3 7 2 16 -1 19 -3 4 -6 -2 -5 -13z"/>
<path d="M1681 2334 c0 -11 3 -14 6 -6 3 7 2 16 -1 19 -3 4 -6 -2 -5 -13z"/>
<path d="M3964 2317 c-2 -7 0 -24 5 -38 9 -22 10 -21 10 14 1 37 -5 48 -15 24z"/>
<path d="M1691 2294 c0 -11 3 -14 6 -6 3 7 2 16 -1 19 -3 4 -6 -2 -5 -13z"/>
<path d="M3955 2237 c-4 -10 -5 -21 -1 -24 10 -10 18 4 13 24 -4 17 -4 17 -12 0z"/>
<path d="M1710 2229 c0 -5 5 -7 10 -4 6 3 10 8 10 11 0 2 -4 4 -10 4 -5 0 -10 -5 -10 -11z"/>
<path d="M3718 2132 c-15 -42 -48 -117 -75 -165 -44 -81 -230 -342 -292 -411 -31 -35 -12 -26 47 21 23 19 39 39 36 45 -4 6 -2 8 4 4 9 -5 43 32 133 142 5 6 6 12 2 12 -4 0 -1 6 7 13 9 7 22 27 29 45 7 17 18 32 23 32 5 0 6 5 3 10 -3 6 -1 10 5 10 6 0 8 5 5 10 -3 6 -2 10 3 10 16 0 112 284 100 295 -2 2 -15 -31 -30 -73z"/>
<path d="M3946 2188 c-105 -407 -320 -688 -701 -918 -94 -57 -222 -118 -303 -145 -29 -9 -52 -19 -50 -21 5 -5 100 21 125 34 11 6 23 9 25 7 13 -13 292 141 388 213 161 122 390 370 390 423 0 11 14 47 31 81 48 95 123 338 104 338 -3 0 -7 -6 -9 -12z"/>
<path d="M1740 2181 c0 -6 4 -13 10 -16 6 -3 7 1 4 9 -7 18 -14 21 -14 7z"/>
<path d="M3093 2096 c-80 -92 -226 -184 -367 -232 -277 -95 -617 -21 -833 179 -51 47 -60 53 -39 25 71 -95 242 -197 401 -239 63 -17 110 -22 215 -22 119 0 146 3 225 27 162 49 306 140 403 254 24 28 42 52 39 52 -3 0 -23 -20 -44 -44z"/>
<path d="M3210 2120 c-6 -11 -8 -20 -6 -20 3 0 10 9 16 20 6 11 8 20 6 20 -3 0 -10 -9 -16 -20z"/>
<path d="M1585 2010 c10 -11 20 -20 23 -20 3 0 -3 9 -13 20 -10 11 -20 20 -23 20 -3 0 3 -9 13 -20z"/>
<path d="M1685 1905 c117 -113 178 -152 313 -200 197 -70 343 -88 528 -62 167 24 289 77 439 192 72 55 173 153 110 106 -16 -12 -59 -46 -95 -76 -35 -29 -99 -72 -142 -95 -163 -87 -304 -116 -507 -107 -262 12 -473 96 -661 262 -50 44 -46 39 15 -20z"/>
<path d="M2393 1403 c9 -2 25 -2 35 0 9 3 1 5 -18 5 -19 0 -27 -2 -17 -5z"/>
<path d="M2858 1093 c7 -3 16 -2 19 1 4 3 -2 6 -13 5 -11 0 -14 -3 -6 -6z"/>
</g>
</svg>
